<mxfile host="app.diagrams.net" modified="2022-01-03T09:10:08.349Z" agent="5.0 (Windows NT 10.0; Win64; x64) AppleWebKit/537.36 (KHTML, like Gecko) Chrome/96.0.4664.110 Safari/537.36" etag="wtlAjGZJbJwbnHyG2UIL" version="16.1.2" type="github">
  <diagram name="Page-1" id="e3a06f82-3646-2815-327d-82caf3d4e204">
    <mxGraphModel dx="2480" dy="1394" grid="1" gridSize="10" guides="1" tooltips="1" connect="1" arrows="1" fold="1" page="1" pageScale="1.5" pageWidth="1169" pageHeight="826" background="none" math="0" shadow="0">
      <root>
        <mxCell id="0" style=";html=1;" />
        <mxCell id="1" style=";html=1;" parent="0" />
        <mxCell id="6a7d8f32e03d9370-60" value="&lt;b&gt;&lt;font style=&quot;font-size: 28px&quot;&gt;Backend Structure&lt;/font&gt;&lt;/b&gt;" style="whiteSpace=wrap;html=1;fillColor=#d5e8d4;fontSize=14;strokeColor=none;verticalAlign=top;" parent="1" vertex="1">
          <mxGeometry x="849.5" y="355.59" width="611.5" height="544.41" as="geometry" />
        </mxCell>
        <mxCell id="GqYt_yee1KtFsBoNoQVH-2" style="edgeStyle=orthogonalEdgeStyle;rounded=0;orthogonalLoop=1;jettySize=auto;html=1;entryX=0.026;entryY=0.456;entryDx=0;entryDy=0;entryPerimeter=0;exitX=0.888;exitY=0.541;exitDx=0;exitDy=0;exitPerimeter=0;" edge="1" parent="1" source="6a7d8f32e03d9370-15" target="6a7d8f32e03d9370-25">
          <mxGeometry relative="1" as="geometry">
            <Array as="points">
              <mxPoint x="938" y="644" />
              <mxPoint x="1131" y="644" />
              <mxPoint x="1131" y="758" />
            </Array>
          </mxGeometry>
        </mxCell>
        <mxCell id="6a7d8f32e03d9370-15" value="&lt;font style=&quot;font-size: 22px&quot;&gt;Application Server&lt;/font&gt;" style="verticalLabelPosition=top;aspect=fixed;html=1;verticalAlign=bottom;strokeColor=none;shape=mxgraph.citrix.cache_server;fillColor=#66B2FF;gradientColor=#0066CC;fontSize=14;labelPosition=center;align=center;" parent="1" vertex="1">
          <mxGeometry x="791" y="530" width="165.67" height="227.5" as="geometry" />
        </mxCell>
        <mxCell id="6a7d8f32e03d9370-25" value="&lt;font style=&quot;font-size: 22px&quot;&gt;Database server&lt;/font&gt;" style="verticalLabelPosition=bottom;aspect=fixed;html=1;verticalAlign=top;strokeColor=none;shape=mxgraph.citrix.proxy_server;fillColor=#66B2FF;gradientColor=#0066CC;fontSize=14;" parent="1" vertex="1">
          <mxGeometry x="1281" y="675.5" width="153" height="180" as="geometry" />
        </mxCell>
        <mxCell id="6a7d8f32e03d9370-53" style="edgeStyle=none;rounded=0;html=1;startSize=10;endSize=10;jettySize=auto;orthogonalLoop=1;fontSize=14;endArrow=none;endFill=0;strokeWidth=2;exitX=0.011;exitY=0.516;exitDx=0;exitDy=0;exitPerimeter=0;" parent="1" source="6a7d8f32e03d9370-15" target="6a7d8f32e03d9370-29" edge="1">
          <mxGeometry relative="1" as="geometry">
            <mxPoint x="954.3389694041871" y="238" as="sourcePoint" />
          </mxGeometry>
        </mxCell>
        <mxCell id="6a7d8f32e03d9370-54" style="edgeStyle=none;rounded=0;html=1;startSize=10;endSize=10;jettySize=auto;orthogonalLoop=1;fontSize=14;endArrow=none;endFill=0;strokeWidth=2;exitX=0.009;exitY=0.57;exitDx=0;exitDy=0;exitPerimeter=0;" parent="1" source="6a7d8f32e03d9370-15" target="6a7d8f32e03d9370-28" edge="1">
          <mxGeometry relative="1" as="geometry">
            <mxPoint x="982.1897274633125" y="238" as="sourcePoint" />
          </mxGeometry>
        </mxCell>
        <mxCell id="6a7d8f32e03d9370-55" style="edgeStyle=none;rounded=0;html=1;startSize=10;endSize=10;jettySize=auto;orthogonalLoop=1;fontSize=14;endArrow=none;endFill=0;strokeWidth=2;exitX=0.011;exitY=0.624;exitDx=0;exitDy=0;exitPerimeter=0;" parent="1" source="6a7d8f32e03d9370-15" target="6a7d8f32e03d9370-27" edge="1">
          <mxGeometry relative="1" as="geometry">
            <mxPoint x="811" y="510" as="sourcePoint" />
          </mxGeometry>
        </mxCell>
        <mxCell id="6a7d8f32e03d9370-27" value="&lt;font style=&quot;font-size: 25px&quot;&gt;Lecturers&lt;/font&gt;" style="verticalLabelPosition=top;aspect=fixed;html=1;verticalAlign=bottom;strokeColor=none;shape=mxgraph.citrix.thin_client;fillColor=#66B2FF;gradientColor=#0066CC;fontSize=14;labelPosition=center;align=center;" parent="1" vertex="1">
          <mxGeometry x="360" y="757.5" width="182.5" height="182.5" as="geometry" />
        </mxCell>
        <mxCell id="6a7d8f32e03d9370-28" value="&lt;font style=&quot;font-size: 25px&quot;&gt;Students&lt;/font&gt;" style="verticalLabelPosition=top;aspect=fixed;html=1;verticalAlign=bottom;strokeColor=none;shape=mxgraph.citrix.thin_client;fillColor=#66B2FF;gradientColor=#0066CC;fontSize=14;labelPosition=center;align=center;" parent="1" vertex="1">
          <mxGeometry x="371" y="480" width="160" height="160" as="geometry" />
        </mxCell>
        <mxCell id="6a7d8f32e03d9370-29" value="&lt;font style=&quot;font-size: 25px&quot;&gt;Visitors&lt;/font&gt;" style="verticalLabelPosition=top;aspect=fixed;html=1;verticalAlign=bottom;strokeColor=none;shape=mxgraph.citrix.thin_client;fillColor=#66B2FF;gradientColor=#0066CC;fontSize=14;labelPosition=center;align=center;" parent="1" vertex="1">
          <mxGeometry x="371" y="210" width="161" height="161" as="geometry" />
        </mxCell>
        <mxCell id="6a7d8f32e03d9370-62" value="&lt;font style=&quot;font-size: 34px&quot;&gt;SCES System Set up diagram&lt;/font&gt;" style="text;strokeColor=none;fillColor=none;html=1;fontSize=24;fontStyle=1;verticalAlign=middle;align=center;" parent="1" vertex="1">
          <mxGeometry x="499" y="30" width="861" height="100" as="geometry" />
        </mxCell>
        <mxCell id="GqYt_yee1KtFsBoNoQVH-3" value="&lt;font style=&quot;font-size: 22px&quot;&gt;Deep Web APIs&lt;/font&gt;" style="rounded=1;whiteSpace=wrap;html=1;" vertex="1" parent="1">
          <mxGeometry x="921" y="400" width="190" height="90" as="geometry" />
        </mxCell>
        <mxCell id="GqYt_yee1KtFsBoNoQVH-4" value="&lt;font style=&quot;font-size: 21px&quot;&gt;Surface Web APIs&lt;/font&gt;" style="rounded=1;whiteSpace=wrap;html=1;" vertex="1" parent="1">
          <mxGeometry x="1211" y="410" width="180" height="80" as="geometry" />
        </mxCell>
      </root>
    </mxGraphModel>
  </diagram>
</mxfile>
